<?xml version="1.0" standalone="no"?>
<!DOCTYPE svg PUBLIC "-//W3C//DTD SVG 20010904//EN"
 "http://www.w3.org/TR/2001/REC-SVG-20010904/DTD/svg10.dtd">
<svg version="1.0" xmlns="http://www.w3.org/2000/svg"
 width="260.000000pt" height="260.000000pt" viewBox="0 0 260.000000 260.000000"
 preserveAspectRatio="xMidYMid meet">
<metadata>
Created by potrace 1.11, written by Peter Selinger 2001-2013
</metadata>
<g transform="translate(0.000000,260.000000) scale(0.100000,-0.100000)"
fill="#000000" stroke="none">
<path d="M1140 1305 c-267 -267 -480 -485 -475 -486 6 0 95 -1 198 -1 l189 -1
124 124 124 123 122 -122 c73 -72 130 -122 143 -123 99 -4 368 -3 370 2 2 3
-95 104 -216 225 l-219 219 162 162 163 163 -100 100 -100 100 -485 -485z"/>
<path d="M485 1300 c-264 -264 -473 -480 -465 -481 8 0 97 -1 198 -1 l183 -1
337 336 c185 185 359 359 387 386 l49 51 -94 95 c-52 52 -99 95 -105 95 -5 0
-226 -216 -490 -480z"/>
<path d="M1847 1362 l-97 -98 217 -217 c120 -119 221 -220 225 -223 6 -5 343
-9 393 -5 10 1 -625 641 -635 641 -3 0 -49 -44 -103 -98z"/>
</g>
</svg>
