<?xml version="1.0" standalone="no"?>
<!DOCTYPE svg PUBLIC "-//W3C//DTD SVG 1.1//EN" "http://www.w3.org/Graphics/SVG/1.1/DTD/svg11.dtd" >
<svg xmlns="http://www.w3.org/2000/svg">
<metadata>Generated by IcoMoon</metadata>
<defs>
<font id="icons" horiz-adv-x="512">
<font-face units-per-em="512" ascent="480" descent="-32" />
<missing-glyph horiz-adv-x="512" />
<glyph unicode="&#x20;" d="" horiz-adv-x="256" />
<glyph unicode="&#xe600;" d="M256 358.4c-74.226 0-134.4-60.173-134.4-134.4s60.173-134.4 134.4-134.4c74.226 0 134.4 60.173 134.4 134.4s-60.173 134.4-134.4 134.4zM140.8 224.002c0-0.001 0-0.001 0 0v0c0 0 0 0 0 0 0 16.267 3.583 31.71 9.976 45.661l54.953-146.635c-38.431 18.183-64.929 56.566-64.929 100.974zM256.001 111.8c-11.309 0-22.222 1.614-32.547 4.571l34.568 97.817 35.409-94.483c0.233-0.555 0.52-1.066 0.825-1.546-11.974-4.104-24.841-6.36-38.255-6.36zM271.875 276.607c6.933 0.354 13.184 1.065 13.184 1.065 6.207 0.717 5.476 9.601-0.734 9.246 0 0-18.661-1.425-30.704-1.425-11.321 0-30.34 1.425-30.34 1.425-6.213 0.355-6.941-8.889-0.731-9.246 0 0 5.876-0.71 12.083-1.065l17.947-47.894-25.213-73.637-41.95 121.531c6.942 0.354 13.186 1.065 13.186 1.065 6.202 0.717 5.47 9.601-0.738 9.246 0 0-18.655-1.425-30.702-1.425-2.161 0-4.71 0.051-7.414 0.136 20.596 30.457 56.005 50.57 96.253 50.57 29.99 0 57.298-11.167 77.793-29.459-0.497 0.029-0.982 0.090-1.493 0.090-11.315 0-19.346-9.6-19.346-19.913 0-9.246 5.478-17.069 11.316-26.315 4.38-7.471 9.497-17.072 9.497-30.942l-0.002-0.001c0-9.6-3.791-20.745-8.764-36.27l-11.493-37.389-41.634 120.606zM371.2 224.002c0-41.39-23.033-77.528-57.281-96.977l35.185 99.081c6.573 16.006 8.76 28.806 8.76 40.185 0 4.132-0.281 7.964-0.776 11.537 8.994-15.978 14.111-34.317 14.111-53.826zM0 480v-512h512v512h-512zM256 70.4c-84.831 0-153.6 68.769-153.6 153.6s68.769 153.6 153.6 153.6 153.6-68.769 153.6-153.6-68.769-153.6-153.6-153.6zM140.8 224.001v0.001z" />
<glyph unicode="&#xe601;" d="M0 480v-512h512v512h-512zM251.5 160.719v0 0.106c-22.685-87.045-123.501-37.003-123.501-37.003s42.297-5.33 42.297 34.121c0 38.245 38.871 41.699 41.258 41.875l40.025-39.002c0-0.009-0.080-0.098-0.080-0.098zM281.368 197.308v0c-10.071-12.325-18.74-22.94-24.043-29.452l-39.083 38.087c6.334 5.638 16.881 15.021 29.108 25.893l34.018-34.527c-0.001 0-0.001 0.001 0 0v0zM357.806 290.784v0c-11.939-14.511-44.669-54.579-70.668-86.427l-33.012 33.513c29.858 26.572 66.816 59.416 80.173 71.177 23.761 20.942 44.596 33.4 49.125 28.308 2.837-2.819-4.696-21.108-25.62-46.571zM281.368 197.308h-0.001z" />
<glyph unicode="&#xe602;" d="M0 480v-512h512v512h-512zM256.404 109.602c0 0-134.4 82.396-134.4 148.799 0 39.994 24.797 79.997 72.001 79.997 43.175 0 62.377-40.866 62.401-40.914 0.019 0.048 16.827 40.914 62.401 40.914 45.599 0 71.193-39.197 71.193-79.997-0.002-67.2-133.595-148.799-133.595-148.799zM256.404 297.483l-0.001 0.001v-0.001z" />
<glyph unicode="&#xe603;" d="M313.984 137.899c0-5.656-4.584-10.24-10.24-10.24h-180.864v-36.779h266.24v266.24h-75.136v-219.221zM122.88 357.12h75.264v-151.714h-75.264v151.714zM293.504 357.12h-74.88v-161.954c0-5.656-4.584-10.24-10.24-10.24h-85.504v-36.787h170.624v208.981zM0 480v-512h512v512h-512zM409.6 80.64c0-5.656-4.584-10.24-10.24-10.24h-286.72c-5.656 0-10.24 4.584-10.24 10.24v286.72c0 5.656 4.585 10.24 10.24 10.24h286.72c5.656 0 10.24-4.585 10.24-10.24v-286.72z" />
<glyph unicode="&#xe604;" d="M0 480v-512h512v512h-512zM372.962 357.308l18.601-13.528-3.382-5.073-15.783 8.455 0.564 10.146zM318.849 373.654l2.255-14.655-23.111-0.563-3.382 16.346 24.238-1.127zM247.263 365.762l13.528-15.219-18.601-10.71-13.528 16.346 18.601 9.582zM184.131 317.288l19.728-12.965-15.219-18.038-20.292 13.528 15.782 17.474zM133.966 242.882l25.928-10.146-7.892-21.983-26.493 8.455 8.456 23.674zM102.4 120.567l3.382 28.183 29.311-2.255-5.073-29.311-27.62 3.382zM291.793 229.918l-4.51-18.601-19.165 16.346 7.327 14.655 16.347-12.4zM286.157 278.394l11.837 10.71 11.273-16.911-6.764-11.838-16.347 18.038zM288.975 179.752l1.127-18.601-23.674 10.146 1.127 19.728 21.419-11.273zM299.12 121.13l10.71-21.983-29.874 1.69-5.637 20.291h24.801zM328.432 293.049l-7.327 13.528 15.783 3.946 2.255-9.019-10.71-8.455zM384.798 303.76l-15.219 1.69v8.455l15.219-3.382v-6.764zM402.837 306.577c0 0-16.911 19.165-47.912 15.783-31.002-3.383-85.678-34.947-94.133-104.279s24.801-144.863 24.801-144.863h-149.936c0 0-3.946 24.801 5.637 72.15s23.674 78.913 47.912 124.007c24.238 45.094 63.132 82.296 119.498 87.368 56.367 5.073 100.897-40.021 100.897-40.021l-6.764-10.146z" />
<glyph unicode="&#xe605;" d="M214.556 355.132c-7.597 0-13.752-6.284-13.752-14.008 0-7.699 6.155-13.923 13.752-13.923 7.571 0 13.752 6.225 13.752 13.923 0 7.725-6.182 14.009-13.752 14.009zM296.985 94.61c7.597 0 13.752 6.284 13.752 14.009 0 7.699-6.156 13.923-13.752 13.923-7.57 0-13.752-6.225-13.752-13.923 0-7.724 6.182-14.009 13.752-14.009zM0 480v-512h512v512h-512zM173.387 150.473h-25.198c-21.298 0-33.74 15.461-38.95 37.157-7.028 29.15-6.73 46.57 0 74.485 5.835 24.355 24.485 37.156 45.783 37.156h100.791v9.31h-73.287v27.931c0 21.149 5.632 32.617 36.644 38.096 10.528 1.863 22.491 2.93 35.021 2.99 12.529 0.058 25.593-0.894 38.181-2.99 19.889-3.315 36.644-18.237 36.644-38.096v-69.786c0-20.465-16.266-37.242-36.644-37.242h-73.202c-24.853 0-45.783-21.338-45.783-45.529v-33.483zM402.304 187.628c-7.408-22.298-15.342-37.157-36.644-37.157h-109.846v-9.31h73.202v-27.931c0-21.145-18.195-31.897-36.644-37.242-27.757-8.056-50.004-6.822-73.202 0-19.373 5.697-36.644 17.382-36.644 37.242v69.786c0 20.082 16.593 37.243 36.644 37.243h73.202c24.392 0 45.783 21.233 45.783 46.467v32.543h27.505c21.328 0 31.38-15.954 36.644-37.156 7.327-29.449 7.652-51.527 0-74.484z" />
<glyph unicode="&#xe606;" d="M133.082 256.361h-23.081l-12.578-64.721h20.49c13.582 0 23.698 2.557 30.346 7.676 6.648 5.118 11.132 13.66 13.462 25.63 2.229 11.493 1.214 19.603-3.047 24.328-4.264 4.725-12.794 7.087-25.593 7.087zM396.014 256.361h-23.081l-12.579-64.721h20.49c13.582 0 23.699 2.557 30.346 7.676 6.648 5.118 11.132 13.66 13.462 25.63 2.229 11.493 1.214 19.603-3.046 24.328-4.264 4.725-12.793 7.087-25.592 7.087zM0 480v-512h512v512h-512zM175.386 184.702c-6.726-6.296-14.199-10.779-22.422-13.454-8.222-2.678-18.696-4.012-31.427-4.012h-28.855l-7.99-41.113h-33.688l30.056 154.641h64.779c19.488 0 33.703-5.114 42.639-15.343 8.935-10.228 11.625-24.506 8.061-42.838-1.468-7.551-3.95-14.456-7.444-20.711-3.499-6.259-8.066-11.982-13.712-17.171zM273.717 167.236l13.296 68.421c1.512 7.784 0.957 13.093-1.67 15.923-2.627 2.831-8.219 4.249-16.769 4.249h-26.711l-17.216-88.593h-33.422l30.056 154.64h33.422l-7.99-41.113h29.774c18.733 0 31.656-3.269 38.767-9.801 7.111-6.536 9.243-17.126 6.399-31.764l-13.983-71.962h-33.952zM459.472 222.583c-1.467-7.551-3.95-14.456-7.443-20.711-3.498-6.259-8.065-11.982-13.711-17.171-6.726-6.296-14.199-10.779-22.421-13.454-8.223-2.678-18.696-4.012-31.428-4.012h-28.854l-7.99-41.113h-33.687l30.057 154.641h64.779c19.488 0 33.703-5.114 42.639-15.343 8.935-10.228 11.625-24.507 8.060-42.838z" />
<glyph unicode="&#xe607;" d="M0 480v-512h512v512h-512zM417.483 62.517h-322.966v322.966h322.966v-322.966zM207.599 280.909c-7.707 0-13.147-0.68-16.097-1.362v-51.693c3.403-0.906 7.937-1.133 13.604-1.133 19.85 0 32.302 9.246 33.46 25.579 0.059 0.829 0.097 1.67 0.097 2.536 0 17.005-11.791 26.073-31.064 26.073zM110.283 369.717v-291.435h291.435v291.435h-291.435zM266.49 253.19c-0.546-13.266-5.031-24.275-13.093-31.91-11.107-11.111-28.566-16.324-48.292-16.324-5.214 0-9.975 0.226-13.604 0.909v-57.589h-27.661v150.769c9.979 1.814 23.807 3.176 42.623 3.176 20.409 0 35.37-4.307 45.118-12.469 9.067-7.482 14.967-19.5 14.967-33.782 0-0.937-0.021-1.863-0.058-2.78zM348.053 177.8c-1.348-18.582-16.86-32.022-44.786-32.022-12.748 0-24.25 3.091-32.363 7.305-0.401 0.209-0.803 0.418-1.188 0.632l5.437 20.178c6.349-3.856 18.366-7.933 28.341-7.933 10.849 0 16.344 3.919 17.459 9.855 0.144 0.765 0.224 1.558 0.224 2.386 0 7.483-4.532 11.34-18.134 16.103-20.056 6.963-29.296 17.665-30.294 29.538-0.074 0.879-0.108 1.763-0.092 2.654 0 19.496 16.103 34.69 41.723 34.69 12.241 0 22.899-3.175 29.245-6.575l-5.44-19.726c-4.762 2.723-13.606 6.347-23.353 6.347-9.976 0-15.418-4.761-15.418-11.563 0-0.902 0.089-1.743 0.269-2.536 1.219-5.39 6.749-8.532 19.005-12.881 19.95-7.255 29.245-17.458 29.474-33.779 0-0.902-0.043-1.791-0.108-2.671z" />
<glyph unicode="&#xe608;" d="M0 480v-512h512v512h-512zM409.6 150.808c0-9.518-5.112-18.372-13.334-23.158l-126.933-73.289c-4.058-2.351-8.664-3.563-13.365-3.563-4.638 0-9.255 1.212-13.313 3.563l-42.383 25.075c-6.325 3.541-3.236 4.796-1.15 5.524 8.444 2.93 10.152 3.606 19.163 8.717 0.938 0.527 2.182 0.327 3.152-0.241l32.56-19.332c1.18-0.654 2.846-0.654 3.932 0l126.942 73.269c1.18 0.675 1.94 2.034 1.94 3.435v146.496c0 1.434-0.759 2.772-1.971 3.499l-126.89 73.206c-1.171 0.685-2.73 0.685-3.911 0l-126.858-73.228c-1.234-0.705-2.013-2.087-2.013-3.478v-146.496c0-1.402 0.779-2.73 2.002-3.394l34.774-20.092c18.867-9.434 30.42 1.676 30.42 12.839v144.641c0 2.044 1.644 3.656 3.69 3.656h16.096c2.013 0 3.678-1.613 3.678-3.656v-144.641c0-25.182-13.714-39.623-37.588-39.623-7.337 0-13.113 0-29.24 7.947l-33.288 19.163c-8.222 4.753-13.313 13.639-13.313 23.158v146.498c0 9.518 5.091 18.404 13.313 23.137l126.942 73.353c8.032 4.543 18.71 4.543 26.679 0l126.933-73.353c8.221-4.754 13.334-13.618 13.334-23.137v-146.497zM288.519 212.579c-34.732 3.435-56.214 11.111-56.214 38.895 0 25.613 21.588 40.888 57.786 40.888 40.665 0 60.788-14.114 63.339-44.398 0.095-1.043-0.274-2.045-0.969-2.825-0.697-0.727-1.665-1.171-2.688-1.171h-16.475c-1.707 0-3.216 1.213-3.563 2.867-3.952 17.582-13.566 23.2-39.643 23.2-29.199 0-32.593-10.173-32.593-17.792 0-9.234 4.006-11.922 43.429-17.139 39.010-5.155 57.541-12.459 57.541-39.876 0-27.659-23.063-43.5-63.288-43.5-55.549 0-67.186 25.498-67.186 46.885 0 2.034 1.635 3.658 3.669 3.658h16.411c1.834 0 3.362-1.318 3.648-3.11 2.477-16.707 9.865-25.139 43.458-25.139 26.743 0 38.127 6.050 38.127 20.238 0 8.178-3.226 14.25-44.788 18.32z" />
<glyph unicode="&#xe609;" d="M0 480v-512h512v512h-512zM217.866 188.69c0-65.678-31.781-87.57-79.096-87.57-12.005 0-27.189 2.118-36.37 5.649l5.296 34.957c7.061-2.118 16.597-4.236 26.837-4.236 24.718 0 39.901 11.299 39.901 52.612v152.894h43.432v-154.308zM319.205 101.473c-25.070 0-51.2 7.063-64.265 14.829l9.534 36.017c14.124-8.122 35.31-15.184 57.556-15.184 27.895 0 43.432 13.065 43.432 32.486 0 18.008-12.005 28.601-42.372 39.548-39.195 14.124-64.265 34.958-64.265 69.208 0 38.841 32.486 68.503 84.038 68.503 25.777 0 44.845-5.649 57.204-12.006l-10.594-34.958c-8.474 4.591-25.072 11.3-47.316 11.3-27.543 0-39.548-14.831-39.548-28.602 0-18.362 13.771-26.836 45.55-39.195 41.313-15.537 61.44-36.37 61.44-70.621-0.001-38.136-28.954-71.327-90.395-71.327z" />
<glyph unicode="&#xe60a;" d="M0 480v-512h512v512h-512zM277.358 360.005l8.665 11.954c-16.041-28.976-0.802-64.55 23.796-83.199 4.324-3.277 9.004-6.107 13.837-8.456 2.586-1.216 5.238-2.317 7.911-3.264 2.093-0.758 4.457-1.536 6.617-2.060 27.475-6.673 49.868-2.072 63.214 17.113-4.077-5.827-19.276-45.434-75.358-34.605-1.224 0.236-2.404 0.682-3.585 1.050-0.401 0.123-0.758 0.244-1.137 0.356-0.848 0.289-1.673 0.557-2.495 0.88-20.279 7.43-37.68 23.126-46.192 43.137-8.022 18.826-6.906 40.029 4.724 57.095zM232.438 79.658c-2.072 0.391-4.031 1.105-6.060 1.717-0.489 0.123-0.958 0.289-1.425 0.423-1.984 0.615-3.923 1.247-5.882 1.918-0.225 0.076-0.423 0.142-0.647 0.233-1.761 0.635-3.542 1.291-5.258 1.962-0.469 0.154-0.912 0.356-1.358 0.522-1.894 0.747-3.746 1.515-5.594 2.317-0.336 0.169-0.667 0.3-0.98 0.445-1.649 0.734-3.253 1.46-4.815 2.229-0.399 0.199-0.802 0.411-1.225 0.6-0.221 0.123-0.466 0.213-0.71 0.313-1.026 0.524-2.030 1.058-2.988 1.582-0.802 0.399-1.583 0.778-2.362 1.212-1.425 0.758-2.832 1.551-4.213 2.352-0.513 0.3-1.047 0.6-1.579 0.88-1.851 1.113-3.722 2.262-5.594 3.454-0.513 0.344-1.025 0.679-1.56 1.023-1.204 0.793-2.364 1.571-3.588 2.373-0.111 0.090-0.244 0.181-0.356 0.279-0.469 0.3-0.916 0.623-1.362 0.947-1.224 0.87-2.471 1.749-3.675 2.65-0.6 0.457-1.179 0.904-1.761 1.337-1.113 0.848-2.227 1.693-3.34 2.575-0.536 0.434-1.070 0.857-1.606 1.303-1.335 1.105-2.653 2.218-3.965 3.344-0.225 0.21-0.493 0.423-0.738 0.635-0.020 0.021-0.043 0.031-0.066 0.055-1.492 1.28-2.917 2.618-4.344 3.955-0.426 0.411-0.869 0.822-1.315 1.247-1.093 1.023-2.119 2.070-3.143 3.107-0.469 0.445-0.892 0.857-1.315 1.282-1.338 1.382-2.652 2.772-3.944 4.189-0.091 0.055-0.134 0.111-0.178 0.166-0.024 0.035-0.066 0.067-0.066 0.088-1.339 1.473-2.653 2.964-3.9 4.469-0.379 0.423-0.734 0.86-1.094 1.271-0.933 1.149-1.871 2.305-2.827 3.466-0.358 0.478-0.758 0.967-1.113 1.457-1.049 1.326-2.052 2.664-3.054 4.034-0.178 0.245-0.379 0.502-0.557 0.769-0.044 0.021-0.088 0.065-0.088 0.111-1.179 1.58-2.253 3.185-3.32 4.812-0.358 0.502-0.671 1.002-1.002 1.515-0.737 1.204-1.563 2.393-2.273 3.598-0.423 0.623-0.781 1.247-1.16 1.871-0.668 1.116-1.335 2.262-2.005 3.387-0.356 0.647-0.71 1.271-1.046 1.95-0.201 0.335-0.445 0.714-0.601 1.058-0.359 0.623-0.69 1.26-0.982 1.894-0.51 0.98-1.046 1.938-1.513 2.952-20.812 41.531-24.175 92.378 3.029 131.46l21.214 26.928c-23.954-46.267-13.149-102.65 16.798-143.505 1.093-1.505 2.184-2.962 3.32-4.421 0.356-0.445 0.714-0.88 1.026-1.337 0.979-1.18 1.939-2.373 2.897-3.553 0.356-0.401 0.688-0.825 1.047-1.236 1.315-1.539 2.629-3.055 3.988-4.546 0.066-0.079 0.134-0.142 0.201-0.2 1.292-1.425 2.606-2.816 3.944-4.166 0.423-0.423 0.826-0.837 1.271-1.279 1.047-1.061 2.117-2.084 3.185-3.13 0.446-0.402 0.822-0.793 1.268-1.216 1.472-1.362 2.964-2.732 4.458-4.067 0.157-0.123 0.356-0.245 0.489-0.39 1.405-1.224 2.786-2.408 4.256-3.588 0.493-0.399 1.002-0.802 1.495-1.212 1.133-0.916 2.271-1.784 3.408-2.664 0.581-0.423 1.137-0.846 1.673-1.267 1.268-0.926 2.516-1.828 3.786-2.719 0.446-0.312 0.869-0.623 1.292-0.923 1.315-0.892 2.652-1.795 4.010-2.652 0.49-0.344 0.983-0.679 1.516-1.014 1.849-1.18 3.743-2.329 5.614-3.442 0.513-0.276 1.002-0.534 1.448-0.837 1.449-0.802 2.898-1.627 4.347-2.404 0.778-0.434 1.582-0.825 2.407-1.247 1.18-0.623 2.381-1.26 3.585-1.828 0.469-0.233 0.892-0.457 1.358-0.656 1.539-0.738 3.054-1.449 4.635-2.175 0.379-0.154 0.714-0.324 1.116-0.466 1.804-0.793 3.653-1.583 5.524-2.317 0.469-0.178 0.958-0.347 1.429-0.548 1.694-0.656 3.387-1.303 5.101-1.892 0.268-0.113 0.557-0.213 0.826-0.3 1.894-0.647 3.833-1.282 5.792-1.875 0.469-0.166 1.002-0.32 1.472-0.454 2.030-0.603 4.011-1.239 6.016-1.693 53.966-12.278 110.94-1.236 143.046 40.551 0.004-0.002-38.209-103.022-169.736-79.046zM284.599 174.147c-1.981 0.308-3.877 1.067-5.748 1.659-0.58 0.19-1.16 0.368-1.805 0.58-1.315 0.434-2.652 0.892-3.967 1.358-0.601 0.213-1.204 0.466-1.849 0.679-1.428 0.545-2.875 1.148-4.303 1.76-0.399 0.166-0.758 0.312-1.18 0.478-1.736 0.793-3.498 1.582-5.235 2.44-0.134 0.058-0.292 0.123-0.402 0.18-0.825 0.434-1.67 0.88-2.519 1.303-0.423 0.233-0.846 0.434-1.267 0.69-1.228 0.623-2.452 1.315-3.612 2.017-0.202 0.099-0.399 0.21-0.6 0.309-1.381 0.816-2.72 1.639-4.077 2.518-0.379 0.236-0.781 0.524-1.157 0.769-0.871 0.557-1.717 1.094-2.519 1.67-0.090 0.035-0.134 0.079-0.201 0.103-1.847 1.315-3.675 2.65-5.459 4.043-0.423 0.3-0.802 0.635-1.225 0.936-1.804 1.405-3.544 2.842-5.258 4.358 0 0-0.024 0.021-0.044 0.031-0.047 0.055-0.134 0.111-0.181 0.169-1.536 1.358-3.028 2.752-4.5 4.164-0.399 0.399-0.778 0.769-1.157 1.149-1.539 1.524-3.031 3.041-4.413 4.6-3.944 3.399-7.196 8.412-10.137 12.645-3.253 4.624-6.15 9.494-8.69 14.507-15.353 29.944-16.446 67.834 3.277 96.132l16.019 22.683c-13.059-22.092-14.728-49.331-7.153-73.597 7.173-23.363 22.324-43.994 41.488-59.079 0.402-0.336 0.802-0.647 1.228-0.991 1.805-1.362 3.608-2.72 5.456-4.002 0.916-0.613 1.785-1.18 2.675-1.749 0.423-0.265 0.802-0.557 1.248-0.811 1.291-0.859 2.696-1.685 4.054-2.507 0.269-0.156 0.536-0.291 0.801-0.437 1.114-0.656 2.207-1.303 3.387-1.915 0.469-0.245 0.983-0.502 1.515-0.769 0.892-0.466 1.762-0.913 2.653-1.37 1.736-0.834 3.521-1.67 5.326-2.452 0.332-0.177 0.734-0.32 1.157-0.49 1.405-0.623 2.854-1.18 4.303-1.749 0.6-0.233 1.224-0.457 1.825-0.679 1.315-0.49 2.675-0.947 4.034-1.382 0.579-0.2 1.113-0.39 1.714-0.545 1.874-0.613 3.789-1.171 5.751-1.673 43.671-11.339 84.604 3.165 105.748 33.626-0.001-0.001-23.486-78.201-125.001-61.364z" />
<glyph unicode="&#xe60b;" d="M0 480v-512h512v512h-512zM275.058 320.438c3.219 7.472 11.889 10.921 19.355 7.7 7.467-3.221 10.919-11.884 7.7-19.356l-8.163-18.945-27.054 11.656 8.163 18.945zM194.18 146.796h-39.127l-78.253 78.254 78.253 78.253h39.127l-78.253-78.253 78.253-78.254zM205.818 122.497l0.46 38.293 27.054-11.656-27.514-26.637zM208.611 166.204l46.631 108.233 27.054-11.656-46.631-108.233-27.054 11.656zM305.94 287.887l-30.305-70.349c-0.647-1.492-2.384-2.183-3.873-1.541s-2.18 2.377-1.538 3.868l19.819 46-37.89 16.325 6.997 16.228 37.883-16.322 3.495 8.123c0.647 1.492 2.384 2.183 3.873 1.541 1.496-0.645 2.186-2.382 1.539-3.873zM356.947 149.865h-39.127l78.253 78.253-78.253 78.253h39.127l78.253-78.253-78.253-78.253z" />
<glyph unicode="&#xe60c;" d="M281.017 235.626c-15.716 0-24.474-15.21-24.474-34.986 0-0.806 0.022-1.599 0.051-2.387 0.697-18.1 9.354-31.075 24.219-31.075 9.948 0 18.696 7.388 21.085 18.904 0.595 2.391 0.793 4.997 0.793 7.825v15.861c0 2.174-0.2 4.781-0.595 6.953-2.19 10.429-9.944 18.905-21.081 18.905zM401.717 369.717h-291.435v-291.435h291.435v291.435zM210.767 289.683v-141.625h-26.728v146.457h26.728v-4.832zM327.722 148.056h-21.642l-0.993 16.734h-0.402c-5.772-11.737-17.499-19.127-31.627-19.127-22.59 0-40.6 20.642-41.337 52.108-0.016 0.664-0.035 1.327-0.035 2.002-0.2 35.42 20.088 56.495 43.366 56.495 13.331 0 22.872-6.084 27.252-13.905h0.391v59.972h24.467v-124.513c0-10.863 0.396-22.594 0.801-29.767h-0.24zM0 480v-512h512v512h-512zM417.483 62.517h-322.966v322.966h322.966v-322.966z" />
<glyph unicode="&#xe60d;" d="M0 480v-512h512v512h-512zM417.483 62.517h-322.966v322.966h322.966v-322.966zM242.256 247.856c-2.952 9.315-5.455 19.769-7.725 28.629h-0.452c-2.274-8.861-4.546-19.539-7.274-28.629l-11.811-37.716h39.306l-12.043 37.716zM110.283 369.717v-291.435h291.435v291.435h-291.435zM301.277 145.612h-28.346l-13.862 43.399h-48.623l-13.177-43.399h-28.853l49.073 153.139h35.672l49.758-153.139h-1.642zM341.99 251.212v-105.6h-28.175v110.653h28.175v-5.053zM343.354 284.481c-1.17-7.083-6.974-12.313-15.675-12.313-8.362 0-14.144 5.311-15.248 12.476-0.126 0.819-0.207 1.657-0.207 2.52 0 8.635 6.362 15.225 15.678 15.225 9.546 0 15.45-6.59 15.68-15.225 0-0.918-0.086-1.812-0.229-2.682z" />
<glyph unicode="&#xe60e;" d="M148.679 295.003c3.575-27.19 23.254-49.739 43.965-50.358 20.701-0.619 34.589 20.919 31.018 48.118-3.576 27.194-23.264 49.015-43.968 49.637-20.706 0.615-34.59-20.197-31.016-47.397zM189.892 191.849c-30.851 0.334-58.489-18.807-58.489-41.8 0-23.459 22.282-42.99 53.135-42.99 43.374 0 58.492 18.332 58.492 41.793 0 2.826-0.347 5.596-0.985 8.288-3.388 13.273-15.404 19.853-32.151 31.502-6.091 1.972-12.801 3.132-20.001 3.207zM0 480v-512h512v512h-512zM270.119 353.775l-17.988-13.003h-25.487c16.905-6.502 25.911-26.209 25.911-46.431 0-16.984-9.409-31.587-22.702-41.975-12.97-10.133-15.429-14.378-15.429-22.994 0-7.353 13.893-19.86 21.159-25.003 21.236-15.019 28.106-28.961 28.106-52.24 0-29.036-28.103-57.908-78.992-57.908-44.637 0-82.3 18.161-82.3 47.194 0 29.479 34.356 57.907 78.991 57.906 4.863 0 9.32 0.134 13.935 0.134-6.109 5.945-10.94 13.226-10.94 22.207 0 5.327 1.702 10.457 4.081 15.013-2.426-0.174-4.903-0.226-7.452-0.226-36.661 0-61.226 26.083-61.226 58.4 0 31.625 33.916 58.927 69.951 58.927 20.095 0 80.382 0 80.382 0l-0.001-0.002zM409.6 276.977h-57.6v-57.6h-19.2v57.6h-57.6v19.2h57.6v57.6h19.2v-57.6h57.6v-19.2z" />
<glyph unicode="&#xe60f;" d="M0 480v-512h512v512h-512zM411.957 74.148c0-2.214-1.795-4.009-4.009-4.009h-70.83c-0.51 0-0.995 0.104-1.443 0.279-1.499 0.58-2.566 2.026-2.566 3.731v48.111c0 2.169 1.726 3.925 3.878 3.995 0.045 0.001 0.086 0.014 0.131 0.014h28.019v83.769h-101.862v-83.507h28.139c0.547 0 1.066-0.111 1.541-0.309 1.449-0.604 2.468-2.033 2.468-3.7v-48.111c0-2.214-1.795-4.009-4.009-4.009h-70.83c-2.214 0-4.009 1.795-4.009 4.009v48.111c0 2.214 1.795 4.009 4.009 4.009h28.139v83.507h-101.862v-83.507h28.273c0.547 0 1.066-0.111 1.541-0.309 1.449-0.604 2.468-2.033 2.468-3.7v-48.111c0-2.214-1.795-4.009-4.009-4.009h-70.83c-2.214 0-4.009 1.795-4.009 4.009v48.111c0 2.214 1.795 4.009 4.009 4.009h28.004v97.474h116.412v97.471h-28.138c-2.214 0-4.009 1.795-4.009 4.009v48.111c0 2.214 1.795 4.009 4.009 4.009h70.83c2.214 0 4.009-1.795 4.009-4.009v-48.111c0-2.214-1.795-4.009-4.009-4.009h-28.139v-97.471h116.413v-97.733h28.26c0.547 0 1.066-0.111 1.541-0.309 1.449-0.604 2.468-2.033 2.468-3.7v-48.109z" />
<glyph unicode="&#xe610;" d="M0 480v-512h512v512h-512zM366.7 101.601l-111-31.2-110.399 31.2-24.6 276h270.6l-24.601-276zM180.1 218.601h117.6l-4.2-43.8-37.8-10.2-37.8 10.2-2.4 27h-33.6l4.2-53.399 69.601-19.2h0.6v0.166l69 19.034 0.6 6 7.8 89.4 1.2 9h-123.6l-3 34.799h129.6l0.6 7.201 1.8 17.4 0.6 9h-169.799l0.6-9z" />
<glyph unicode="&#xe611;" d="M0 480v-512h512v512h-512zM385.765 243.165l-3.763-18.678-18.538-93.108-139.8-46.415-121.264 46.416 12.266 61.887h51.572l-5.018-25.507 73.315-28.015 84.605 28.015 11.709 58.82h-209.911l10.174 51.572h210.050l6.55 33.313h-209.91l10.315 51.572h261.482l-23.834-119.871z" />
<glyph unicode="&#xe612;" d="M0 480v-512h512v512h-512zM200.746 328.283l14.571-0.83c-1.987-2.111-5.145-6.353-4.031-11.626 1.683-7.953 13.269-10.014 22.423-9.206 12.54 1.105 17.961 5.194 23.427 13.866 6.675 10.627 16.561 16.607 36.265 18.345 20.7 1.826 40.022-3.251 42.928-16.996 1.188-5.619-1.298-12.091-5.416-15.625l-14.932 0.62c4.065 3.794 7.004 9.072 5.908 14.259-1.626 7.695-11.932 11.365-25.467 10.171-12.539-1.106-19.046-4.851-24.349-13.332-5.751-10.193-15.853-17.072-34.762-18.74-20.9-1.843-38.016 4.308-40.41 15.634-1.261 5.967 1.010 10.571 3.846 13.462zM381.136 193.788c-10.353-15.53-20.707-29.332-31.055-43.994-4.313-8.626-6.904-17.252-8.626-25.878h-0.863c-6.899-9.49-16.389-15.53-27.605-18.979-15.525-5.176-31.914-7.763-47.444-6.899h-1.723c-15.53-0.863-31.055 1.723-45.721 6.899-12.075 3.45-21.565 9.49-28.464 18.979-1.727 8.626-5.177 17.252-9.489 25.878-10.349 14.661-20.702 28.464-31.055 43.994-4.658 8.445-8.912 17.291-12.685 26.457-1.59-1.483-3.109-3.111-4.567-4.892-6.898-9.49-9.486-20.707-6.898-32.782 1.727-12.94 8.626-23.288 18.979-31.055 9.486-7.763 18.975-11.212 30.191-11.212-5.177-1.728-11.217-4.313-16.393-5.176-13.798-2.587-25.879 0-37.090 8.626-10.353 8.626-17.252 19.843-18.115 33.642-0.863 13.803 3.45 27.605 12.939 39.681 4.978 6.334 10.434 11.231 16.485 14.843-5.161 14.551-9.061 29.807-11.308 45.541 4.313-6.899 17.252-13.803 41.404-19.838 26.742-6.040 61.246-10.352 103.514-10.352 41.409 0 75.913 4.313 102.655 10.352 23.288 5.176 36.227 12.076 41.404 19.838-5.18-30.193-14.67-58.658-28.467-83.672zM367.332 279.185c-26.742-6.904-60.383-10.353-102.651-10.353-41.409 0-75.913 3.45-102.655 10.353-28.464 6.899-42.267 15.525-43.131 24.151 0 7.763 8.626 12.94 24.156 18.979-5.177-3.45-6.904-6.904-6.904-10.353 0-8.626 12.94-15.525 37.959-21.565 23.288-5.176 55.207-8.626 91.434-8.626 37.096 0 68.15 3.45 92.302 8.626 25.878 6.040 38.818 12.94 38.818 21.565 0 3.45-1.728 6.039-4.313 7.763 11.214-4.313 17.253-10.349 17.253-16.388 0-8.626-13.803-17.252-42.267-24.152z" />
<glyph unicode="&#xe613;" d="M0 480v-512h512v512h-512zM250.88 256.223v-117.848l-118.787-67.975-0.239 165.689 0.145 141.491c0 0 71.078-40.198 113.318-64.374l-41.452-23.715-30.608 17.512v-35.022l-41.371-23.668 0.018-12.196 118.976 68.069v-47.961zM380.147 70.512l-119.026 67.769v165.867l119.026-68.158v-165.478zM380.147 248.179l-41.070 23.517-0.083 34.542-30.754-16.885-41.582 23.811 113.488 64.435v-129.422zM173.275 141.281c4.614 2.637 60.395 34.781 77.605 44.699v70.243l-77.635-45.356c0 0.001 0.030-53.372 0.030-69.585zM205.616 217.798l40.025-23.030-41.406-23.839-20.718 11.889-0.031 22.32 22.13 12.661zM338.798 211.155l-77.678 45.056v-70.298l77.678-44.13v69.372zM328.78 182.819l-20.717-11.889-41.406 23.839 40.025 23.030 22.128-12.659-0.031-22.321zM131.904 236.117l-0.050-0.029 0.050 0.028z" />
<glyph unicode="&#xe614;" d="M146.234 146.159l109.487-60.178 110.052 60.993 20.516 170.145-130.704 44.896-129.872-45.705 20.522-170.152zM253.942 351.504v0.002l0.124-0.266 93.354-199.135-31.89 0.592-19.618 45.44h-80.088l-17.919-44.817-33.327-0.615 89.365 198.798zM254.181 287.762l-26.6-63.095h56.759zM0 480v-512h512v512h-512zM378.166 138.279l-122.476-67.879-121.849 66.971-22.84 189.363 144.534 50.865 145.463-49.965-22.832-189.356z" />
<glyph unicode="&#xe615;" d="M0 480v-512h512v512h-512zM409.6 97.519c0-14.916-12.204-27.12-27.12-27.12h-252.961c-14.915 0-27.12 12.204-27.12 27.12v49.774l44.547 41.327c4.621-2.508 9.916-3.932 15.542-3.932 8.636 0 16.464 3.377 22.3 8.851l39.173-22.543c-0.386-2.004-0.604-4.070-0.604-6.187 0-18.026 14.613-32.639 32.639-32.639 18.027 0 32.641 14.615 32.641 32.639 0 7.509-2.564 14.406-6.824 19.92l59.569 91.083c2.779-0.77 5.695-1.214 8.719-1.214 7.56 0 14.501 2.595 20.034 6.91l39.463-26.585v-157.404zM409.6 281.084l-27.748 18.692c0.563 2.399 0.892 4.889 0.892 7.462 0 18.027-14.613 32.641-32.641 32.641-18.026 0-32.64-14.615-32.64-32.641 0-7.092 2.286-13.637 6.128-18.99l-59.989-91.724c-2.443 0.584-4.981 0.926-7.604 0.926-8.036 0-15.382-2.918-21.069-7.733l-40.147 23.106c0.205 1.476 0.347 2.974 0.347 4.505 0 18.028-14.613 32.64-32.64 32.64-18.026 0-32.639-14.613-32.639-32.64 0-4.476 0.905-8.739 2.535-12.623l-29.986-27.817v173.591c0 14.916 12.204 27.12 27.12 27.12h252.959c14.916 0 27.12-12.204 27.12-27.12v-69.397z" />
<glyph unicode="&#xe616;" d="M0 480v-512h512v512h-512zM409.6 70.4h-307.2v307.2h307.2v-307.2zM338.175 203.711c0 11.551-10.071 16.291-22.659 16.291h-9.034v-32.582c2.37-0.296 5.479-0.445 9.627-0.445 11.699 0 22.066 4.443 22.066 16.735zM256.216 90.88h132.904v266.24h-132.904v-266.24zM288.414 272.724c5.776 1.185 16.291 2.072 26.51 2.072 13.477 0 21.77-1.629 28.582-6.368 6.22-3.703 10.367-10.219 10.367-18.66 0-9.182-5.776-17.623-16.587-21.622v-0.296c10.515-2.666 20.141-10.959 20.141-24.731 0-8.885-3.85-15.846-9.625-20.586-7.108-6.22-18.808-9.329-37.024-9.329-10.071 0-17.772 0.74-22.363 1.332v98.186zM335.51 247.696c0 9.329-7.108 13.626-18.661 13.626-5.331 0-8.441-0.296-10.367-0.74v-27.25h9.329c12.589-0.001 19.697 5.923 19.697 14.364zM167.46 273.908l-31.988-99.817h18.808l8.589 28.286h31.692l9.034-28.286h19.549l-32.433 99.817h-23.25zM165.832 216.151l7.701 24.584c1.778 5.924 3.258 12.885 4.739 18.659h0.296c1.481-5.775 3.11-12.588 5.035-18.659l7.849-24.584h-25.619z" />
<glyph unicode="&#xe617;" d="M0 480v-512h512v512h-512zM378.149 286.649c0.122-2.703 0.183-5.422 0.183-8.154 0-83.286-63.394-179.323-179.321-179.323-35.592 0-68.72 10.435-96.612 28.317 4.93-0.584 9.947-0.882 15.034-0.882 29.529 0 56.705 10.075 78.274 26.981-27.579 0.507-50.855 18.731-58.876 43.769 3.848-0.735 7.797-1.132 11.858-1.132 5.748 0 11.316 0.772 16.604 2.212-28.832 5.791-50.557 31.263-50.557 61.8 0 0.266 0 0.53 0.006 0.792 8.496-4.721 18.215-7.556 28.546-7.884-16.912 11.302-28.038 30.593-28.038 52.459 0 11.55 3.109 22.377 8.534 31.685 31.085-38.132 77.526-63.222 129.905-65.851-1.075 4.614-1.632 9.424-1.632 14.363 0 34.806 28.219 63.023 63.026 63.023 18.128 0 34.508-7.654 46.004-19.903 14.356 2.826 27.844 8.071 40.023 15.294-4.705-14.718-14.7-27.069-27.712-34.869 12.749 1.522 24.896 4.911 36.199 9.923h0.001c-8.449-12.638-19.135-23.738-31.451-32.625z" />
<glyph unicode="&#xe618;" d="M0 480v-512h512v512h-512zM176.805 80.88h-59.448v191.19h59.448v-191.19zM147.084 298.212c-19.048 0-34.445 15.44-34.445 34.466 0 19.005 15.397 34.445 34.445 34.445 18.997 0 34.437-15.44 34.437-34.445 0-19.026-15.44-34.466-34.437-34.466zM399.359 80.88h-59.354v92.972c0 22.185-0.435 50.703-30.887 50.703-30.923 0-35.641-24.156-35.641-49.095v-94.58h-59.404v191.19h57.007v-26.112h0.811c7.934 15.027 27.322 30.879 56.231 30.879 60.13 0 71.236-39.589 71.236-91.089v-104.869z" />
<glyph unicode="&#xe619;" d="M0 480v-512h512v512h-512zM304.81 87.592c-7.795-1.5-10.562 3.279-10.562 7.386 0 5.036 0.188 21.603 0.188 42.137 0 14.328-4.913 23.702-10.428 28.445 34.218 3.803 70.13 16.788 70.13 75.794 0 16.769-5.944 30.48-15.788 41.217 1.579 3.886 6.851 19.502-1.529 40.649 0 0-12.873 4.13-42.197-15.746-12.269 3.407-25.411 5.111-38.454 5.17-13.063-0.060-26.203-1.764-38.454-5.17-29.343 19.876-42.239 15.746-42.239 15.746-8.357-21.147-3.085-36.764-1.506-40.649-9.826-10.738-15.81-24.449-15.81-41.217 0-58.861 35.858-72.038 69.965-75.914-4.388-3.84-8.356-10.608-9.751-20.534-8.752-3.931-31-10.709-44.702 12.763 0 0-8.113 14.743-23.528 15.829 0 0-15 0.193-1.054-9.337 0 0 10.069-4.724 17.053-22.469 0 0 9.016-29.872 51.742-20.589 0.075-12.818 0.208-22.478 0.208-26.125 0-4.070-2.804-8.813-10.483-7.404-61.042 20.313-105.049 77.885-105.049 145.741 0 84.84 68.777 153.609 153.59 153.609 84.832 0 153.61-68.767 153.613-153.609 0-67.839-43.971-125.372-104.953-145.723z" />
<glyph unicode="&#xe61a;" d="M0 480v-512h512v512h-512zM212.358 102.077c-3.206-2.905-5.526-1.769-5.526 2.354h0.001v67.868l53.092-27.481c0 0-43.392-38.935-47.566-42.74zM409.332 339.769c-1.019-4.374-46.865-201.981-48.517-209.094-1.403-6.027-7.714-8.197-12.555-5.593-5.526 2.989-83.16 44.777-83.16 44.777l-10 5.376 7.546 8.414c0 0 0 0 0.017 0 0 0 129.623 140.192 131.41 142.145 1.787 1.937-1.068 5.326-3.522 3.523-2.454-1.786-183.383-134.665-183.383-134.665l-37.566 15.059c0 0-56.681 22.706-63.376 25.394-5.644 2.238-4.574 6.328 0.167 7.998 5.576 1.97 289.032 101.842 294.759 103.863 5.743 2.021 9.516-1.469 8.183-7.197z" />
<glyph unicode="&#xe61b;" d="M265.172 222.654c1.711 0.552 3.435 1.071 5.171 1.56-3.294 7.453-6.882 14.915-10.637 22.265-65.519-19.608-129.096-18.79-134.839-18.671-0.040-1.332-0.067-2.667-0.067-4.010 0-33.695 12.775-64.462 33.728-87.722 2.972 5.089 38.978 64.706 106.642 86.578zM342.973 321.938c-23.169 20.556-53.635 33.060-86.971 33.060-10.587 0-20.881-1.27-30.746-3.647 3.626-4.855 27.456-37.305 48.955-76.804 46.653 17.485 66.403 44.031 68.762 47.392zM248.865 266.655c-21.738 38.644-45.184 71.133-48.643 75.877-36.704-17.313-64.141-51.149-72.647-91.861 5.867-0.078 59.92-0.313 121.291 15.984zM278.396 202.228c-74.001-25.788-100.565-77.105-102.925-81.931 22.245-17.348 50.201-27.696 80.531-27.696 18.174 0 35.495 3.717 51.248 10.426v0.001c-1.952 11.511-9.57 51.627-27.989 99.492-0.288-0.099-0.577-0.192-0.865-0.292zM303.815 208.584c17.161-47.156 24.144-85.563 25.488-93.543 29.434 19.901 50.387 51.428 56.236 87.933-4.488 1.416-40.609 12.19-81.724 5.61zM284.295 255.036c3.053-6.25 5.98-12.606 8.705-19.004 0.964-2.268 1.906-4.525 2.825-6.77 43.655 5.489 87.031-3.309 91.358-4.223-0.291 30.967-11.355 59.404-29.627 81.728-2.765-3.742-24.751-31.925-73.261-51.731zM0 480v-512h512v512h-512zM256.001 70.4c-84.696 0-153.601 68.905-153.601 153.6s68.905 153.6 153.601 153.6c84.697 0 153.599-68.905 153.599-153.6s-68.903-153.6-153.599-153.6z" />
</font>
</defs>
</svg>
